HIERARCHY
ROOT SpineBase
{
  OFFSET 0.000000 0.000000 0.000000
  CHANNELS 6 Xposition Yposition Zposition Zrotation Xrotation Yrotation
  JOINT SpineMid
  {
    OFFSET 0.000000 31.520741 0.000000
    CHANNELS 3 Zrotation Xrotation Yrotation
    JOINT SpineShoulder
    {
      OFFSET 0.529520 23.482999 -0.944937
      CHANNELS 3 Zrotation Xrotation Yrotation
      JOINT Neck
      {
        OFFSET 0.207349 7.699062 -0.584968
        CHANNELS 3 Zrotation Xrotation Yrotation
        JOINT Head
        {
          OFFSET 5.574605 11.577901 1.770968
          CHANNELS 3 Zrotation Xrotation Yrotation
          End Site
          {
            OFFSET 0 0 0
          }
        }
      }
      JOINT ShoulderLeft
      {
        OFFSET -5.541498 -4.429309 -15.695781
        CHANNELS 3 Zrotation Xrotation Yrotation
        JOINT ElbowLeft
        {
          OFFSET -2.894717 -26.543121 -7.910100
          CHANNELS 3 Zrotation Xrotation Yrotation
          JOINT WristLeft
          {
            OFFSET 5.338536 -24.772289 -4.043102
            CHANNELS 3 Zrotation Xrotation Yrotation
            JOINT HandLeft
            {
              OFFSET 0.387414 -7.146602 1.355011
              CHANNELS 3 Zrotation Xrotation Yrotation
              JOINT HandTipLeft
              {
                OFFSET 1.083681 -7.685062 1.687735
                CHANNELS 3 Zrotation Xrotation Yrotation
                End Site
                {
                  OFFSET 0 0 0
                }
              }
              JOINT ThumbLeft
              {
                OFFSET -2.610475 1.136509 5.068874
                CHANNELS 3 Zrotation Xrotation Yrotation
                End Site
                {
                  OFFSET 0 0 0
                }
              }
            }
          }
        }
      }
      JOINT ShoulderRight
      {
        OFFSET 6.258405 -8.043270 14.104597
        CHANNELS 3 Zrotation Xrotation Yrotation
        JOINT ElbowRight
        {
          OFFSET 15.399554 -17.118490 -17.142883
          CHANNELS 3 Zrotation Xrotation Yrotation
          JOINT WristRight
          {
            OFFSET -16.065855 -10.567153 4.358411
            CHANNELS 3 Zrotation Xrotation Yrotation
            JOINT HandRight
            {
              OFFSET 2.485537 -7.587969 -2.682801
              CHANNELS 3 Zrotation Xrotation Yrotation
              JOINT HandTipRight
              {
                OFFSET 0.177907 -5.131712 -0.792870
                CHANNELS 3 Zrotation Xrotation Yrotation
                End Site
                {
                  OFFSET 0 0 0
                }
              }
              JOINT ThumbRight
              {
                OFFSET -0.211053 0.090177 -5.729744
                CHANNELS 3 Zrotation Xrotation Yrotation
                End Site
                {
                  OFFSET 0 0 0
                }
              }
            }
          }
        }
      }
    }
  }
  JOINT HipLeft
  {
    OFFSET -2.126153 1.000343 -9.200501
    CHANNELS 3 Zrotation Xrotation Yrotation
    JOINT KneeLeft
    {
      OFFSET -7.295423 -35.781601 -2.914120
      CHANNELS 3 Zrotation Xrotation Yrotation
      JOINT AnkleLeft
      {
        OFFSET -9.677708 -33.982729 3.521294
        CHANNELS 3 Zrotation Xrotation Yrotation
        JOINT FootLeft
        {
          OFFSET 10.191328 -5.240923 -6.884772
          CHANNELS 3 Zrotation Xrotation Yrotation
          End Site
          {
            OFFSET 0 0 0
          }
        }
      }
    }
  }
  JOINT HipRight
  {
    OFFSET 4.030366 -0.204212 1.714596
    CHANNELS 3 Zrotation Xrotation Yrotation
    JOINT KneeRight
    {
      OFFSET -10.022613 -33.089827 -1.327797
      CHANNELS 3 Zrotation Xrotation Yrotation
      JOINT AnkleRight
      {
        OFFSET -14.783330 -35.337520 -2.306275
        CHANNELS 3 Zrotation Xrotation Yrotation
        JOINT FootRight
        {
          OFFSET 2.720764 -7.123240 -1.157695
          CHANNELS 3 Zrotation Xrotation Yrotation
          End Site
          {
            OFFSET 0 0 0
          }
        }
      }
    }
  }
}
MOTION
Frames: 7
Frame Time: 0.033333
-92.792958 75.303336 347.425124 -6.638055 -2.054233 -48.434859 0.425089 0.667694 48.114713 -0.302848 -0.470790 -0.230698 3.827037 16.060283 -5.441394 0.000000 0.000000 0.000000 6.691910 -1.178331 0.504706 -4.235971 -6.092195 -1.835940 -9.365821 1.435988 -0.395631 13.207900 3.855067 1.316220 0.000000 0.000000 0.000000 0.000000 0.000000 0.000000 6.144598 2.441433 0.271319 14.759332 -26.047744 51.672248 -66.531210 -14.274702 -72.135566 6.230560 38.697428 19.406133 0.000000 0.000000 0.000000 0.000000 0.000000 0.000000 7.371334 5.366673 48.323866 -4.889654 2.992904 -0.373182 -13.684122 -11.461440 -7.381769 0.000000 0.000000 0.000000 8.180859 4.834075 49.042241 -4.360901 4.550573 -0.810208 49.528823 -2.966257 -7.435439 0.000000 0.000000 0.000000
-92.571431 75.302929 347.116761 -6.685482 -2.165248 -46.918002 0.468603 0.651088 46.589745 -0.286853 -0.496066 -0.230740 6.351244 17.549647 -6.906478 0.000000 0.000000 0.000000 6.645383 -0.718589 0.475813 -4.416809 -6.259684 -1.776073 -8.878447 1.785083 -0.409432 10.922340 3.377004 1.082671 0.000000 0.000000 0.000000 0.000000 0.000000 0.000000 6.161169 2.600031 0.259407 13.974411 -32.477067 59.068939 -66.539682 -14.304879 -94.313976 -13.497694 39.004942 42.018194 0.000000 0.000000 0.000000 0.000000 0.000000 0.000000 6.970939 5.060224 46.853379 -4.757943 3.172265 -0.516672 -19.040087 -15.467535 -11.165214 0.000000 0.000000 0.000000 15.375083 3.324577 48.722194 -8.810130 8.159379 -0.537967 44.835803 14.612771 -9.341881 0.000000 0.000000 0.000000
-92.288004 75.302561 346.982740 -6.609963 -2.340251 -46.578213 0.399614 0.632215 46.247709 -0.299604 -0.525985 -0.230817 9.209250 19.099508 -8.628124 0.000000 0.000000 0.000000 6.587015 -0.179732 0.435540 -4.403405 -6.144055 -1.646413 -7.675813 2.311590 -0.353989 7.994592 2.570976 0.764510 0.000000 0.000000 0.000000 0.000000 0.000000 0.000000 7.024785 5.695729 1.887643 8.234961 -41.732834 59.890633 -58.913807 -20.025464 -120.285913 -44.415369 26.287993 71.288263 0.000000 0.000000 0.000000 0.000000 0.000000 0.000000 6.147875 4.853608 46.568903 -4.456324 3.187924 -0.645188 -20.947709 -17.138437 -13.088939 0.000000 0.000000 0.000000 21.515773 2.192528 49.569895 -12.670623 10.471961 0.476222 42.537388 25.528385 -11.211310 0.000000 0.000000 0.000000
-92.138762 75.079962 346.771309 -6.618387 -2.283701 -44.621041 0.408450 0.555045 44.290257 -0.358410 -0.439977 -0.234653 12.180061 20.284889 -10.360452 0.000000 0.000000 0.000000 6.815300 0.153673 0.365862 -4.390291 -5.851723 -1.420441 -6.094461 3.205671 -0.216096 4.792392 0.615689 0.194939 0.000000 0.000000 0.000000 0.000000 0.000000 0.000000 5.430689 3.607827 2.007005 1.637643 -47.550117 58.515940 -47.710353 -36.193824 -157.876678 -53.921786 -7.944812 78.258158 0.000000 0.000000 0.000000 0.000000 0.000000 0.000000 6.078930 4.437875 44.661737 -4.296679 3.349074 -0.736155 -18.642427 -16.165976 -11.451648 0.000000 0.000000 0.000000 26.778325 0.007707 49.119675 -15.283578 12.001916 1.691998 42.689513 32.233377 -13.936817 0.000000 0.000000 0.000000
-92.040477 74.797651 346.758454 -6.662689 -2.384332 -49.048975 0.278954 0.655156 48.715648 -0.423818 -0.279301 -0.235918 14.839586 21.079052 -11.863039 0.000000 0.000000 0.000000 7.267822 0.657331 0.198575 -4.412018 -5.687008 -1.109072 -4.258029 4.662588 0.045468 1.307329 -1.422815 -0.510297 0.000000 0.000000 0.000000 0.000000 0.000000 0.000000 4.308060 -0.306170 -0.099456 -3.035652 -52.492073 60.986809 -46.186464 -40.839603 176.234711 -53.140042 -26.711402 83.536179 0.000000 0.000000 0.000000 0.000000 0.000000 0.000000 5.733536 4.700905 49.134227 -4.107665 3.642724 -0.802224 -12.987598 -12.923208 -8.482143 0.000000 0.000000 0.000000 29.205604 1.941598 53.473512 -16.648612 11.694096 2.707682 46.772666 34.532610 -17.904033 0.000000 0.000000 0.000000
-92.019557 74.743371 346.763361 -6.791974 -2.323446 -54.627720 0.126020 0.801413 54.296240 -0.474324 -0.159938 -0.240178 16.643323 20.804289 -12.489403 0.000000 0.000000 0.000000 8.011894 1.227249 -0.068466 -4.514844 -5.698367 -0.717560 -2.836614 6.156366 0.299530 -1.523890 -4.885436 -1.549638 0.000000 0.000000 0.000000 0.000000 0.000000 0.000000 2.805870 -7.822977 -5.781121 -3.929299 -55.050071 68.161024 -55.824227 -64.052629 125.417080 -23.796348 -65.988975 103.336059 0.000000 0.000000 0.000000 0.000000 0.000000 0.000000 5.823034 4.990997 54.770445 -3.961482 4.036522 -0.833331 -5.661801 -7.823081 -5.220899 0.000000 0.000000 0.000000 26.062593 6.255755 57.224782 -16.211214 6.754075 3.542261 47.340910 31.152126 -19.542655 0.000000 0.000000 0.000000
-91.976267 74.774310 346.775124 -6.886254 -2.060580 -60.848496 -0.064941 0.877676 60.529286 -0.525939 -0.086663 -0.247736 16.822489 19.687599 -12.001862 0.000000 0.000000 0.000000 8.310401 1.654054 -0.169994 -3.607665 -5.458397 -0.477051 -1.885219 7.774498 0.629102 -1.993354 -8.362513 -1.988985 0.000000 0.000000 0.000000 0.000000 0.000000 0.000000 0.254371 -20.732319 -19.303740 0.542631 -53.689330 83.498987 -98.235247 -59.112932 48.876254 70.341000 -53.227270 -151.860099 0.000000 0.000000 0.000000 0.000000 0.000000 0.000000 6.279074 5.067536 61.112622 -3.817367 4.807623 -0.931480 1.692576 -2.188382 -2.676094 0.000000 0.000000 0.000000 24.991682 10.410732 62.213745 -17.024183 3.303576 4.686593 48.474063 31.367900 -21.974387 0.000000 0.000000 0.000000
